<?xml version="1.0" encoding="UTF-8"?>
<svg enable-background="new 0 0 38.1 38.1" version="1.1" viewBox="0 0 38.1 38.1" xmlns="http://www.w3.org/2000/svg">
 <style type="text/css">.st0{fill:#00A5CB;} .st1{fill:#0190B0;} .st2{fill:#FFFFFF;} .st3{fill:#F2F2F2;}</style>
 <path class="st0" d="M19.1,38C8.7,38,0.3,29.5,0.3,19.1S8.7,0.3,19.1,0.3"/>
 <path class="st1" d="M19.1,0.3C29.5,0.3,38,8.7,38,19.1S29.5,38,19.1,38"/>
 <path class="st2" d="m29.9 18.1c0-0.6-0.1-1.1-0.2-1.7-0.8-3.2-3.5-5.5-6.8-5.2-1 0.1-1.9 0.4-2.8 0.7-1.2 0.4-2.3-0.1-3.4-0.5-1.1-0.3-2.2-0.4-3.3-0.1-2.2 0.6-3.9 2.4-4.6 4.5-1.5 4.5 0.6 9.9 3.8 13.1 0.4 0.5 0.9 0.9 1.5 1.1 1.2 0.4 2.4-0.2 3.5-0.6 2.2-0.7 3.9 1 6.1 0.7 1-0.1 1.8-0.9 2.4-1.6 1.7-2 2.9-4.4 3.5-7 0.2-1.1 0.4-2.2 0.3-3.4z"/>
 <path class="st2" d="m20.4 11c1.1-0.3 2.1-1.1 2.7-2 0.8-1.1 1.1-2.4 1-3.7-1.3 0.1-2.5 0.7-3.4 1.7-1.1 1.2-1.5 2.6-1.6 4.1h0.4c0.4 0 0.7 0 0.9-0.1z"/>
 <path class="st2" d="m17.5 8.7c0.5 0.8 0.8 1.8 1.2 2.7l0.1-0.2c-0.1-2-1.3-3.8-3.1-4.8-0.2 0.4-0.5 0.7-0.8 1 1.1-0.2 2 0.5 2.6 1.3z"/>
</svg>
